<svg xmlns="http://www.w3.org/2000/svg" xmlns:xlink="http://www.w3.org/1999/xlink" width="219.579" height="117.277" viewBox="0 0 219.579 117.277">
  <defs>
    <clipPath id="clip-path">
      <rect id="Rectangle_423" data-name="Rectangle 423" width="219.579" height="117.277" fill="none" stroke="#707070" stroke-width="2"/>
    </clipPath>
  </defs>
  <g id="Group_868" data-name="Group 868" transform="translate(0 0)">
    <g id="Group_867" data-name="Group 867" transform="translate(0 0)" clip-path="url(#clip-path)">
      <path id="Path_656" data-name="Path 656" d="M123.907,115.454c1.668-17.6,6.907-37.863,23.647-41.01,12.041,7.9,23.744,6.893,35.064-3.683,11.872-.068,22.748,2.905,28.3,14.424,5.279,10.944,4.979,30.269,4.979,30.269m-78.051-83.74a20.67,20.67,0,0,1,1.44-8.387c6.231-14.854,43.248-20.234,47.729,1.793,1.271,6.274,1.407,21.617-1.2,27.876-2.866,6.859-10.62,13.24-18.151,14.99-10.422,2.431-19.939-.537-24.541-10.978C140.1,50.16,137.9,37.258,137.843,31.714Zm-45.428,83.74c-1.668-17.6-6.907-37.863-23.647-41.01-12.041,7.9-23.744,6.893-35.064-3.683-11.872-.068-22.748,2.905-28.3,14.424C.129,96.129.428,115.454.428,115.454m78.056-83.74a20.582,20.582,0,0,0-1.45-8.387C70.8,8.473,33.791,3.093,29.31,25.121,28.039,31.395,27.9,46.737,30.514,53c2.866,6.864,10.625,13.24,18.151,14.99C59.086,70.418,68.6,67.45,73.206,57.009,76.227,50.16,78.421,37.258,78.484,31.714Zm2.359,40.9,15.8-18.765h27.727a2.174,2.174,0,0,0,2.166-2.166V2.591c0-1.6-1.281-2.166-2.736-2.166H69.706c-1.455,0-2.736.561-2.736,2.166V14.066M74.6,53.848H87.311" transform="translate(1.631 1.628)" fill="none" stroke="#1a1818" stroke-width="2"/>
    </g>
  </g>
</svg>
