<svg id="Group_864" data-name="Group 864" xmlns="http://www.w3.org/2000/svg" xmlns:xlink="http://www.w3.org/1999/xlink" width="213.579" height="181.006" viewBox="0 0 213.579 181.006">
  <defs>
    <clipPath id="clip-path">
      <rect id="Rectangle_421" data-name="Rectangle 421" width="213.579" height="181.006" fill="none" stroke="#707070" stroke-width="2"/>
    </clipPath>
  </defs>
  <g id="Group_863" data-name="Group 863" clip-path="url(#clip-path)">
    <path id="Path_641" data-name="Path 641" d="M12.447,158.835H66.816L160.1,135.317l47.211-30.57a10.039,10.039,0,1,0-11.118-16.718l-35.137,23.686h-43.5" transform="translate(1.146 7.947)" fill="none" stroke="#000" stroke-linejoin="round" stroke-width="2"/>
    <path id="Path_642" data-name="Path 642" d="M119.765,111.715l36.648-23.686a10.044,10.044,0,0,1,15.461,6.626" transform="translate(11.023 7.947)" fill="none" stroke="#000" stroke-linejoin="round" stroke-width="2"/>
    <path id="Path_643" data-name="Path 643" d="M16.6,117.676h9.968L60.426,95.407A21.752,21.752,0,0,1,74.2,90.491h61.1v6.344a14.5,14.5,0,0,1-14.5,14.5H95.431" transform="translate(1.527 8.328)" fill="none" stroke="#000" stroke-linejoin="round" stroke-width="2"/>
    <path id="Path_644" data-name="Path 644" d="M.189,115.385H18.123v54.369H0" transform="translate(0 10.62)" fill="none" stroke="#000" stroke-linejoin="round" stroke-width="2"/>
    <path id="Path_645" data-name="Path 645" d="M59.143,77.215c-23.33-56.16,49.9-103.392,91.468-59.207" transform="translate(5.03 0.053)" fill="none" stroke="#000" stroke-linejoin="round" stroke-width="2"/>
    <path id="Path_646" data-name="Path 646" d="M71.665,89.225a55.308,55.308,0,0,1-8.707-10.462" transform="translate(5.794 7.249)" fill="none" stroke="#000" stroke-linejoin="round" stroke-width="2"/>
    <path id="Path_647" data-name="Path 647" d="M158.826,49.282a55.453,55.453,0,0,1-29.75,51.392" transform="translate(11.88 4.536)" fill="none" stroke="#000" stroke-linejoin="round" stroke-width="2"/>
    <path id="Path_648" data-name="Path 648" d="M133.781,37.472l-18.39-15.486c12.292-4.784,23.871,6.778,38.863,7.7l18.675-7.466s9.354-3.988,14.068.658c0,0,4.094,5.291-3.224,8.646l-55.742,22.3s-9.988,3.807-14.945-.588L99.059,40.685c7.418-4.8,15.949,4.263,24.174,1.208" transform="translate(9.117 1.899)" fill="none" stroke="#000" stroke-linecap="round" stroke-linejoin="round" stroke-width="2"/>
    <path id="Path_649" data-name="Path 649" d="M42.441,56.191S6.011,95.5,104.8,57.484" transform="translate(3.302 5.172)" fill="none" stroke="#000" stroke-linecap="round" stroke-linejoin="round" stroke-width="2"/>
  </g>
</svg>
