<?xml version="1.0" encoding="utf-8"?>
<!-- Generator: Adobe Illustrator 22.1.0, SVG Export Plug-In . SVG Version: 6.00 Build 0)  -->
<svg version="1.1" id="Layer_1" xmlns="http://www.w3.org/2000/svg" xmlns:xlink="http://www.w3.org/1999/xlink" x="0px" y="0px"
	 viewBox="0 0 70 70" style="enable-background:new 0 0 70 70;" xml:space="preserve">
<style type="text/css">
	.st0{fill:#003F5C;}
	.st1{fill:#FFFFFF;}
</style>
<g>
	<circle class="st0" cx="35" cy="35" r="35"/>
	<path class="st1" d="M52,29.8C48.2,26.2,40.2,19,35,19s-13.2,7.2-17,10.8c-1.3,1.2-1.4,3.2-0.3,4.6l3.6,4.5v5.4c0,0.1,0,0.1,0,0.2
		h0c0.5,2.8,4.3,7,13.6,7c9.2,0,13.1-4.1,13.6-7h0c0-0.1,0-0.1,0-0.2v-5.4l3.6-4.5C53.4,33,53.2,31,52,29.8z M46.5,43
		c-9.4-1.3-13.6-1.3-23.1,0v-3.6c8.2-1.3,14.8-1.4,23.1,0V43z M35,49.3c-4,0-9.1-0.9-11.1-4.3c9.1-1.3,13-1.3,22.2,0
		C44.1,48.5,39,49.3,35,49.3z M50.6,33l-3.4,4.3c-8.4-1.4-15.6-1.5-24.3,0L19.4,33c-0.4-0.5-0.4-1.3,0.1-1.7
		C26.2,25,31.9,21.1,35,21.1s8.8,3.8,15.5,10.2C51,31.8,51,32.5,50.6,33z"/>
	<path class="st1" d="M38,26.1H32c-0.6,0-1.1,0.5-1.1,1.1V30c0,2.7,2.2,3.5,3.6,4.2c0.3,0.2,0.7,0.2,1,0c1.4-0.7,3.6-1.5,3.6-4.2
		v-2.9C39.1,26.5,38.6,26.1,38,26.1z M37,30c0,1-0.5,1.3-2,2c-1.4-0.7-2-1-2-2v-1.8H37C37,28.2,37,30,37,30z"/>
</g>
</svg>
